<?xml version="1.0" encoding="UTF-8"?>
<svg id="Layer_1" data-name="Layer 1" xmlns="http://www.w3.org/2000/svg" version="1.1" viewBox="0 0 360 360">
  <defs>
    <style>
      .cls-1 {
        fill: #fff;
        stroke-width: 0px;
      }
    </style>
  </defs>
  <g>
    <path class="cls-1" d="M210.2,236.5c.6-1.6,1.3-3,2.3-4.1s2.1-2.2,3.5-3,2.8-1.4,4.4-1.8,3.3-.6,5.1-.6,3.3.2,4.7.6c1.3.4,2.4.9,3.4,1.6.9.7,1.6,1.5,2,2.4.5.9.7,1.8.7,2.8s-.1,2.2-.4,3.1c-.3.9-.7,1.7-1.3,2.3s-1.3,1.2-2.2,1.6-1.9.8-3.1,1.1c3.6,1.1,5.4,3.2,5.4,6.2s-.4,3.4-1.3,4.8c-.9,1.4-2,2.5-3.4,3.5-1.4.9-3.1,1.6-4.9,2.1s-3.7.7-5.7.7-3.4-.2-4.8-.5c-1.4-.3-2.6-.9-3.6-1.6-1-.7-1.9-1.6-2.5-2.7-.7-1.1-1.2-2.3-1.6-3.8l4-1.2c.5-.1,1-.2,1.5-.3.5,0,.9,0,1.3,0,.4,0,.7.2,1,.4.3.2.5.4.6.6.6,1.2,1.3,2.1,2.1,2.7s1.7.9,2.7.9,1.8-.1,2.5-.5c.7-.3,1.4-.7,1.9-1.2.5-.5.9-1.1,1.2-1.8.3-.7.4-1.4.4-2.2s0-.9-.3-1.4c-.2-.4-.5-.8-1.1-1.1s-1.2-.5-2.2-.7c-.9-.2-2.2-.2-3.7-.2l.7-4.6c1.6,0,2.9-.1,4-.3s1.9-.6,2.5-1,1-1,1.3-1.6c.2-.6.4-1.4.4-2.2s-.3-1.8-.9-2.4c-.6-.6-1.5-.9-2.8-.9s-2.1.3-3,.9c-.9.6-1.5,1.3-1.9,2.1-.5.8-1.1,1.3-1.8,1.6-.7.3-1.6.3-2.7.1l-4.4-.6h0Z"/>
    <path class="cls-1" d="M250.8,239.7c.6-.2,1.2-.3,1.8-.4s1.3-.1,2-.1c1.3,0,2.5.2,3.7.5s2.2.9,3.2,1.5,1.7,1.5,2.2,2.6.8,2.2.8,3.6-.4,3.3-1.2,4.8c-.8,1.5-1.9,2.8-3.3,3.9-1.4,1.1-3.1,2-5.1,2.7-2,.6-4.1,1-6.4,1s-3.7-.2-5.2-.7c-1.5-.5-2.8-1.2-3.8-2-1-.9-1.8-1.9-2.4-3.1-.5-1.2-.8-2.5-.8-3.9s.1-2,.4-2.9c.3-.9.6-1.9,1.1-2.8s1.1-1.8,1.9-2.7c.8-.9,1.6-1.8,2.6-2.8l10.1-9.9c.5-.4,1.1-.8,2-1.1s1.8-.4,2.8-.4h7.6l-13.2,11.4-1,.9h0ZM249.4,254.6c.9,0,1.7-.1,2.5-.5.8-.3,1.5-.7,2.1-1.3.6-.5,1.1-1.2,1.4-1.9s.5-1.6.5-2.5c0-1.4-.4-2.5-1.4-3.3s-2.1-1.2-3.7-1.2-1.7.1-2.4.4c-.8.3-1.4.7-2,1.3s-1,1.2-1.4,2-.5,1.6-.5,2.6.4,2.3,1.2,3.1c.8.8,2,1.2,3.6,1.2h0Z"/>
    <path class="cls-1" d="M295.6,239.9c0,3.4-.5,6.3-1.4,8.8-.9,2.5-2.1,4.6-3.7,6.2s-3.4,2.9-5.5,3.7-4.3,1.2-6.7,1.2-3.4-.3-4.9-.8c-1.5-.5-2.7-1.3-3.8-2.4s-1.9-2.4-2.5-4c-.6-1.6-.9-3.5-.9-5.6,0-3.4.5-6.3,1.3-8.8.9-2.5,2.1-4.6,3.7-6.2s3.4-2.9,5.5-3.7,4.3-1.2,6.7-1.2,3.4.3,4.9.8c1.5.5,2.8,1.3,3.8,2.4,1.1,1.1,1.9,2.4,2.5,4s.9,3.5.9,5.6h0ZM286.9,239.6c0-1.4-.1-2.6-.4-3.5s-.5-1.7-.9-2.2-.8-.9-1.3-1.2c-.5-.2-1-.3-1.6-.3-.9,0-1.8.2-2.7.7-.9.5-1.7,1.3-2.4,2.4-.7,1.1-1.3,2.7-1.7,4.6-.4,1.9-.7,4.4-.7,7.3s.1,2.6.3,3.5c.2.9.5,1.7.9,2.2s.8.9,1.3,1.2c.5.2,1,.3,1.5.3s1.2-.1,1.8-.3,1.2-.5,1.8-1c.6-.5,1.1-1.1,1.6-1.8.5-.8.9-1.7,1.3-2.8.4-1.1.6-2.4.9-3.9s.3-3.2.3-5.2h0Z"/>
  </g>
  <g>
    <path class="cls-1" d="M81,156.8c3.3,0,6.1.5,8.5,1.6s4.3,2.4,5.8,4.3,2.7,3.9,3.4,6.4c.7,2.5,1.1,5.1,1.1,8s-.4,5.9-1.1,8.5c-.8,2.6-1.9,4.8-3.4,6.6-1.5,1.8-3.5,3.3-5.8,4.3s-5.2,1.6-8.4,1.6h-5.7v20.6h-10.8v-61.8h16.5ZM81,187.1c2.8,0,4.8-.9,6.1-2.7,1.2-1.8,1.9-4.3,1.9-7.5s-.2-2.7-.5-3.9-.8-2.1-1.5-3c-.7-.8-1.5-1.5-2.5-1.9s-2.2-.7-3.5-.7h-5.7v19.6h5.7,0Z"/>
    <path class="cls-1" d="M142.3,218.5h-9.8c-1.8,0-3.1-.9-3.9-2.7l-7.8-17.9c-.4-.8-.8-1.3-1.2-1.7s-1.1-.5-1.9-.5h-2.8v22.9h-10.8v-61.8h15.2c3.4,0,6.3.5,8.7,1.4,2.4.9,4.3,2.2,5.8,3.8s2.6,3.6,3.3,5.8c.7,2.2,1,4.7,1,7.3s-.2,3.9-.6,5.7-1,3.4-1.8,4.9c-.8,1.5-1.8,2.9-2.9,4.1s-2.5,2.2-4,2.9c.7.5,1.4,1.1,2,1.8.6.7,1.2,1.6,1.7,2.6l9.9,21.5h0ZM119.2,185.8c1.5,0,2.7-.2,3.8-.7,1-.5,1.9-1.2,2.6-2.1s1.1-1.9,1.4-3.1c.3-1.2.4-2.4.4-3.8,0-2.7-.7-4.8-2-6.4-1.3-1.5-3.4-2.3-6.2-2.3h-4.4v18.3h4.4Z"/>
    <path class="cls-1" d="M190.9,187.6c0,4.5-.6,8.6-1.8,12.5-1.2,3.8-2.8,7.2-4.9,10s-4.7,5.1-7.6,6.7c-3,1.6-6.3,2.4-9.9,2.4s-6.9-.8-9.9-2.4-5.6-3.8-7.7-6.7c-2.1-2.8-3.8-6.2-4.9-10-1.2-3.8-1.8-8-1.8-12.5s.6-8.6,1.8-12.5c1.2-3.8,2.8-7.2,4.9-10s4.7-5.1,7.7-6.7c3-1.6,6.3-2.4,9.9-2.4s6.9.8,9.9,2.4c3,1.6,5.5,3.9,7.6,6.7s3.8,6.2,4.9,10c1.2,3.8,1.8,8,1.8,12.4h0ZM179.9,187.6c0-3.1-.3-5.8-.9-8.2-.6-2.4-1.5-4.5-2.6-6.2-1.1-1.7-2.5-3-4.1-3.9-1.6-.9-3.5-1.4-5.6-1.4s-4,.4-5.6,1.4c-1.6.9-3,2.2-4.1,3.9s-2,3.8-2.6,6.2c-.6,2.4-.9,5.2-.9,8.2s.3,5.8.9,8.3c.6,2.4,1.5,4.5,2.6,6.2,1.1,1.7,2.5,3,4.1,3.9s3.5,1.3,5.6,1.3,3.9-.4,5.6-1.3c1.6-.9,3-2.2,4.1-3.9,1.1-1.7,2-3.8,2.6-6.2s.9-5.2.9-8.3Z"/>
    <path class="cls-1" d="M228.8,202.6c.3,0,.5,0,.8.2.3.1.5.4.7.7l4.3,6c-1.9,3.2-4.2,5.7-7.1,7.4-2.8,1.6-6.2,2.5-10.1,2.5s-6.7-.8-9.5-2.4c-2.8-1.6-5.2-3.8-7.1-6.6-2-2.8-3.5-6.1-4.5-10s-1.6-8.1-1.6-12.6.6-8.8,1.7-12.7c1.1-3.9,2.7-7.2,4.8-10s4.5-5,7.4-6.5c2.9-1.6,6-2.3,9.5-2.3s3.4.2,5,.6c1.6.4,3,1,4.4,1.7s2.6,1.6,3.7,2.6,2.1,2.1,3,3.3l-3.7,6.5c-.2.4-.5.8-.8,1.1-.3.3-.8.5-1.4.5s-.8-.1-1.1-.3-.7-.5-1.1-.8c-.4-.3-.8-.7-1.3-1.1s-1-.7-1.6-1.1c-.6-.3-1.4-.6-2.2-.8-.9-.2-1.8-.3-3-.3-1.8,0-3.4.4-4.9,1.3-1.5.9-2.8,2.2-3.9,3.8s-1.9,3.8-2.5,6.2c-.6,2.4-.9,5.2-.9,8.4s.3,6,1,8.4,1.5,4.5,2.7,6.2c1.1,1.7,2.4,3,3.9,3.8,1.5.9,3.1,1.3,4.8,1.3s1.9,0,2.7-.2,1.6-.3,2.3-.6c.7-.3,1.4-.7,2-1.2.6-.5,1.2-1.1,1.9-1.9.3-.3.5-.5.8-.7.3-.2.6-.3.9-.3h0Z"/>
    <path class="cls-1" d="M250.3,167.8v14.4h14.7v10.6h-14.7v14.7h19.2v11h-30.1v-61.8h30.1v11h-19.2,0Z"/>
    <path class="cls-1" d="M302,169.3c-.3.7-.7,1.2-1,1.5s-.8.5-1.4.5-1-.2-1.6-.6-1.2-.9-1.9-1.4-1.5-1-2.5-1.4c-.9-.4-2-.6-3.1-.6-2,0-3.5.6-4.5,1.7s-1.5,2.7-1.5,4.6.3,2.3.9,3.1,1.4,1.5,2.4,2.1c1,.6,2.1,1.1,3.3,1.6s2.5,1.1,3.8,1.6,2.6,1.3,3.8,2.1c1.2.8,2.4,1.9,3.3,3.1,1,1.3,1.8,2.8,2.4,4.6s.9,4,.9,6.6-.4,5.5-1.1,8c-.8,2.5-1.8,4.7-3.3,6.5-1.4,1.9-3.2,3.3-5.3,4.4s-4.5,1.6-7.1,1.6-2.9-.2-4.4-.6c-1.5-.4-3-.9-4.4-1.7s-2.7-1.6-4-2.6c-1.2-1-2.3-2.1-3.2-3.3l3.2-6.7c.3-.5.6-.9,1-1.2.4-.3.9-.5,1.4-.5s1.3.3,1.9.8,1.4,1.1,2.2,1.8c.8.6,1.8,1.2,2.8,1.8s2.3.8,3.8.8,3.5-.6,4.6-1.7c1.1-1.1,1.6-3,1.6-5.4s-.3-2.6-.9-3.5c-.6-.9-1.4-1.6-2.4-2.2-1-.6-2.1-1.1-3.3-1.6-1.2-.4-2.5-.9-3.8-1.5-1.3-.6-2.6-1.2-3.8-2s-2.4-1.9-3.3-3.2-1.8-2.9-2.4-4.9c-.6-2-.9-4.4-.9-7.3s.4-4.6,1.1-6.8,1.7-4.2,3.1-5.9,3-3.1,5-4.1c2-1,4.3-1.6,6.8-1.6s2.8.1,4.2.4c1.4.3,2.6.7,3.9,1.3,1.2.6,2.4,1.3,3.4,2.1,1.1.8,2,1.7,2.8,2.7l-2.7,6.7h0Z"/>
    <path class="cls-1" d="M337.5,169.3c-.3.7-.7,1.2-1,1.5s-.8.5-1.4.5-1-.2-1.6-.6-1.2-.9-1.9-1.4c-.7-.5-1.5-1-2.5-1.4-.9-.4-2-.6-3.1-.6-2,0-3.5.6-4.5,1.7-1,1.1-1.5,2.7-1.5,4.6s.3,2.3.9,3.1,1.4,1.5,2.4,2.1c1,.6,2.1,1.1,3.3,1.6,1.2.5,2.5,1.1,3.8,1.6,1.3.6,2.6,1.3,3.8,2.1,1.2.8,2.4,1.9,3.3,3.1,1,1.3,1.8,2.8,2.4,4.6s.9,4,.9,6.6-.4,5.5-1.1,8c-.8,2.5-1.8,4.7-3.3,6.5-1.4,1.9-3.2,3.3-5.3,4.4-2.1,1.1-4.5,1.6-7.1,1.6s-2.9-.2-4.4-.6-3-.9-4.4-1.7-2.7-1.6-4-2.6c-1.2-1-2.3-2.1-3.2-3.3l3.2-6.7c.3-.5.6-.9,1-1.2.4-.3.9-.5,1.4-.5s1.3.3,1.9.8,1.4,1.1,2.2,1.8c.8.6,1.8,1.2,2.8,1.8s2.3.8,3.8.8,3.5-.6,4.6-1.7c1.1-1.1,1.6-3,1.6-5.4s-.3-2.6-.9-3.5c-.6-.9-1.4-1.6-2.4-2.2-1-.6-2.1-1.1-3.3-1.6-1.2-.4-2.5-.9-3.8-1.5-1.3-.6-2.6-1.2-3.8-2-1.2-.8-2.4-1.9-3.3-3.2s-1.8-2.9-2.4-4.9c-.6-2-.9-4.4-.9-7.3s.4-4.6,1.1-6.8,1.7-4.2,3.1-5.9,3-3.1,5-4.1c2-1,4.3-1.6,6.8-1.6s2.8.1,4.2.4c1.4.3,2.6.7,3.9,1.3,1.2.6,2.4,1.3,3.4,2.1,1.1.8,2,1.7,2.8,2.7l-2.7,6.7h0Z"/>
  </g>
  <path class="cls-1" d="M56.2,211.6c-1.6,1.3-3.1,2.4-4.6,3.3-1.5.9-3.1,1.7-4.6,2.3-1.6.6-3.2,1.1-4.9,1.3s-3.6.4-5.5.4-5.1-.4-7.2-1.1-4-1.7-5.4-3c-1.5-1.3-2.6-2.9-3.4-4.8-.8-1.9-1.2-3.9-1.2-6.3s.3-3.8.8-5.7c.5-1.9,1.2-3.7,2.2-5.4,1-1.7,2.2-3.3,3.6-4.8,1.4-1.5,3-2.7,4.8-3.8,1.8-1.1,3.8-1.9,6-2.5,2.2-.6,4.5-.9,7-.9s4.4.3,6.2.8c1.7.5,3.2,1.2,4.3,2.1s1.9,1.8,2.5,2.8c.5,1,.8,2,.8,2.9,0,1.6-.4,3.1-1.2,4.5s-2.4,2.6-4.6,3.7-5.3,2-9.2,2.9c-3.9.8-8.9,1.5-15,1.9,0,.3,0,.5,0,.8s0,.5,0,.8c0,3.3.9,5.8,2.7,7.5s4.5,2.6,8.2,2.6,2.8-.1,4-.4,2.2-.6,3.1-.9c.9-.4,1.7-.8,2.4-1.2s1.3-.8,1.9-1.2c.6-.4,1.1-.7,1.6-.9.5-.2,1-.4,1.5-.4s1.1.2,1.6.6l2,2h0ZM43.1,185.4c-2,0-3.8.3-5.4,1s-3.1,1.5-4.4,2.6c-1.3,1.1-2.4,2.4-3.2,3.9-.9,1.5-1.6,3.1-2.1,4.9,4.8-.5,8.6-1,11.5-1.6s5.1-1.2,6.6-1.9,2.6-1.5,3.1-2.3.7-1.7.7-2.5-.1-.9-.4-1.4c-.2-.5-.6-.9-1.2-1.3-.5-.4-1.2-.7-2.1-1-.9-.3-1.9-.4-3.2-.4h0Z"/>
  <path class="cls-1" d="M193,219s-38.2,45.1-116.4,50c0,0-69.3,3.4-10.1-44.2,0,0-41.4,35.8,6.5,36.1,47.9.3,108.2-29.7,120.1-42Z"/>
  <path class="cls-1" d="M129.1,151.4s40.7-42.9,119.1-43.4c0,0,69.3.5,7.6,44.7,0,0,43.4-33.4-4.4-36.4s-109.7,23.6-122.2,35.2h0Z"/>
</svg>